<svg width="803" height="249" viewBox="0 0 803 249" fill="none" xmlns="http://www.w3.org/2000/svg">
<path d="M523 244V124.5V5L650 244V124.5V5M798 52V5H691V96L798 169V244H691V197M347 5V244H476V5H347Z" stroke="black" stroke-width="10"/>
<path d="M139 249H0V0H139V249ZM208 10H186V119.5H233.992C233.352 121.046 233 122.733 233 124.5C233 126.267 233.352 127.954 233.992 129.5H186V239H208V249H176V0H208V10ZM313 249H274V239H303V129.5H260.008C260.648 127.954 261 126.267 261 124.5C261 122.733 260.648 121.046 260.008 119.5H303V10H274V0H313V249ZM10 239H129V10H10V239Z" fill="black"/>
<path d="M245 111C252.051 111 258 116.914 258 124.5C258 132.086 252.051 138 245 138C237.949 138 232 132.086 232 124.5C232 116.914 237.949 111 245 111Z" stroke="black" stroke-width="10"/>
</svg>
